<?xml version="1.0" encoding="UTF-8" standalone="no"?>
<!-- Created with Inkscape (http://www.inkscape.org/) -->

<svg
   version="1.1"
   id="svg2"
   width="2666.6667"
   height="2666.6667"
   viewBox="0 0 2666.6667 2666.6667"
   sodipodi:docname="vecteezy_direction-icon-for-your-website-design-logo-app-ui_21363376.eps"
   xmlns:inkscape="http://www.inkscape.org/namespaces/inkscape"
   xmlns:sodipodi="http://sodipodi.sourceforge.net/DTD/sodipodi-0.dtd"
   xmlns="http://www.w3.org/2000/svg"
   xmlns:svg="http://www.w3.org/2000/svg">
  <defs
     id="defs6" />
  <sodipodi:namedview
     id="namedview4"
     borderopacity="0.25"
     inkscape:showpageshadow="2"
     inkscape:pageopacity="0.0"
     inkscape:pagecheckerboard="0"
     inkscape:deskcolor="#d1d1d1" />
  <g
     id="g8"
     inkscape:groupmode="layer"
     inkscape:label="ink_ext_XXXXXX"
     transform="matrix(1.3333333,0,0,-1.3333333,0,2666.6667)">
    <g
       id="g10"
       transform="scale(0.1)">
      <path
         d="m 10000,17000 c -772,0 -1400,-628 -1400,-1400 V 3466.7 c 0,-258 208.73,-466.7 466.67,-466.7 h 1866.63 c 258,0 466.7,208.7 466.7,466.7 V 15600 c 0,772 -628,1400 -1400,1400"
         style="fill:#a0e5a5;fill-opacity:1;fill-rule:nonzero;stroke:none"
         id="path14" />
      <path
         d="M 9533.33,3466.7 V 15600 c 0,607.6 391.3,1120.7 933.37,1314 -146.7,52.3 -302.3,86 -466.7,86 -772,0 -1400,-628 -1400,-1400 V 3466.7 c 0,-258 208.73,-466.7 466.67,-466.7 H 10000 c -257.94,0 -466.67,208.7 -466.67,466.7"
         style="fill:#89df8f;fill-opacity:1;fill-rule:nonzero;stroke:none"
         id="path16" />
      <path
         d="M 13266.7,3000 H 6733.34 c -257.94,0 -466.66,208.7 -466.66,466.7 0,257.9 208.72,466.7 466.66,466.7 h 6533.36 c 257.9,0 466.6,-208.8 466.6,-466.7 0,-258 -208.7,-466.7 -466.6,-466.7"
         style="fill:#6b7eb5;fill-opacity:1;fill-rule:nonzero;stroke:none"
         id="path18" />
      <path
         d="m 16813.1,13639.9 -1866.6,1400 c -80.7,60.6 -178.7,93.4 -279.8,93.4 H 5333.35 c -257.94,0 -466.67,-208.7 -466.67,-466.6 v -2800 c 0,-258 208.73,-466.7 466.67,-466.7 h 9333.35 c 101.1,0 199.1,32.8 279.8,93.4 l 1866.6,1400 c 117.6,88 186.9,226.5 186.9,373.3 0,146.7 -69.3,285.2 -186.9,373.2"
         style="fill:#ffcd69;fill-opacity:1;fill-rule:nonzero;stroke:none"
         id="path20" />
      <path
         d="m 16813.1,13639.9 -1866.6,1400 c -80.7,60.6 -178.7,93.4 -279.8,93.4 H 5333.35 c -257.94,0 -466.67,-208.7 -466.67,-466.6 V 14200 H 14200 c 101.2,0 199.1,-32.8 279.8,-93.4 l 1866.7,-1400 c 35.8,-26.8 57.5,-65.3 83.8,-100.3 l 382.8,287.1 c 117.6,88 186.9,226.5 186.9,373.3 0,146.7 -69.3,285.2 -186.9,373.2"
         style="fill:#ffc144;fill-opacity:1;fill-rule:nonzero;stroke:none"
         id="path22" />
      <path
         d="M 14666.7,10000 H 5333.35 c -101.17,0 -199.16,-32.8 -279.82,-93.4 l -1866.66,-1400 c -117.58,-88 -186.85,-226.5 -186.85,-373.3 0,-146.7 69.27,-285.2 186.85,-373.2 l 1866.66,-1400 c 80.66,-60.6 178.65,-93.4 279.82,-93.4 h 9333.35 c 257.9,0 466.6,208.7 466.6,466.6 v 2800 c 0,258 -208.7,466.7 -466.6,466.7"
         style="fill:#ff7d97;fill-opacity:1;fill-rule:nonzero;stroke:none"
         id="path24" />
      <path
         d="m 4120.2,7573.3 1866.66,1399.9 c 80.67,60.7 178.65,93.5 279.82,93.5 h 8866.62 v 466.6 c 0,258 -208.7,466.7 -466.6,466.7 H 5333.35 c -101.17,0 -199.16,-32.8 -279.82,-93.4 l -1866.66,-1400 c -117.58,-88 -186.85,-226.5 -186.85,-373.3 0,-146.7 69.27,-285.2 186.85,-373.2 l 746.54,-559.9 c 0.06,146.7 69.27,285.1 186.79,373.1"
         style="fill:#ff5d7d;fill-opacity:1;fill-rule:nonzero;stroke:none"
         id="path26" />
    </g>
  </g>
</svg>
